<?xml version="1.0" encoding="UTF-8"?>
<!--Generator: Apple Native CoreSVG 326-->
<!DOCTYPE svg
PUBLIC "-//W3C//DTD SVG 1.1//EN"
       "http://www.w3.org/Graphics/SVG/1.1/DTD/svg11.dtd">
<svg version="1.1" xmlns="http://www.w3.org/2000/svg" xmlns:xlink="http://www.w3.org/1999/xlink" viewBox="0 0 89.9392 110.491">
 <g>
  <rect height="110.491" opacity="0" width="89.9392" x="0" y="0"/>
  <path d="M22.6967 35.4925C22.6967 41.0569 26.6475 45.0255 34.205 47.0231L58.9364 53.553C71.4115 56.7601 77.9009 64.1861 77.9009 75.114L77.9009 75.6274L67.3379 75.6274L67.3379 75.114C67.3379 69.5496 63.4204 65.6632 55.814 63.6167L31.0982 57.1024C18.6231 53.8797 12.1337 46.4537 12.1337 35.4925L12.1337 34.9614L22.6967 34.9614Z" fill="#0a84ff"/>
  <path d="M32.5202 2.45898C30.5893 0.512594 27.926 0.0643551 24.3264 0.0643551L10.5062 0.0643551C6.93993 0.0643551 4.29218 0.512594 2.34579 2.45898C0.414938 4.40536 0 7.00428 0 10.5861L0 24.4063C0 28.0214 0.414938 30.6537 2.34579 32.5667C4.30771 34.4976 6.93993 34.9614 10.5395 34.9614L24.3264 34.9614C27.926 34.9614 30.5893 34.4976 32.5202 32.5667C34.4488 30.6537 34.8815 28.0214 34.8815 24.4063L34.8815 10.6194C34.8815 7.00428 34.4488 4.38983 32.5202 2.45898ZM87.6112 78.0065C85.6803 76.0757 83.017 75.6274 79.4174 75.6274L65.5972 75.6274C62.0309 75.6274 59.3677 76.0757 57.4368 78.0065C55.4904 79.9684 55.091 82.5518 55.091 86.1492L55.091 99.9538C55.091 103.569 55.4904 106.217 57.4368 108.114C59.3987 110.061 62.0309 110.491 65.5972 110.491L79.4174 110.491C83.017 110.491 85.6803 110.061 87.6112 108.114C89.5398 106.217 89.9392 103.569 89.9392 99.9538L89.9392 86.1492C89.9392 82.5518 89.5398 79.9529 87.6112 78.0065Z" fill="#0a84ff"/>
 </g>
</svg>
