<?xml version="1.0" encoding="UTF-8"?>
<!--Generator: Apple Native CoreSVG 326-->
<!DOCTYPE svg
PUBLIC "-//W3C//DTD SVG 1.1//EN"
       "http://www.w3.org/Graphics/SVG/1.1/DTD/svg11.dtd">
<svg version="1.1" xmlns="http://www.w3.org/2000/svg" xmlns:xlink="http://www.w3.org/1999/xlink" viewBox="0 0 131.541 135.154">
 <g>
  <rect height="135.154" opacity="0" width="131.541" x="0" y="0"/>
  <path d="M94.9469 127.148C103.906 122.927 106.178 114.437 106.703 103.323C107.096 95.3584 106.548 85.9957 108.664 76.5205C110.738 67.2838 115.362 59.0426 118.497 51.5731C122.802 41.5125 124.382 32.8641 118.274 25.1432C112.044 17.4041 103.242 17.0021 92.4256 19.0049C84.4468 20.4902 75.3449 22.9857 65.7707 22.9857C56.1601 22.9857 47.0764 20.4902 39.1381 19.0049C28.2631 16.9799 19.457 17.4041 13.2719 25.1068C7.14118 32.8641 8.72146 41.5488 13.0439 51.5731C16.1799 59.0426 20.7443 67.2838 22.8777 76.5609C24.9566 85.9957 24.4269 95.3584 24.8388 103.323C25.3275 114.437 27.6349 122.927 36.5582 127.148C39.2658 128.464 41.9148 129.072 44.5053 129.072C50.4197 129.072 56.2129 126.001 62.3898 121.506C69.035 116.793 76.2215 110.533 84.7814 106.379C93.4445 102.185 102.631 100.61 110.325 98.458C121.128 95.5143 128.835 91.3781 131.037 81.7699C133.221 72.1658 128.101 64.9764 119.705 57.7893C113.563 52.4332 105.964 46.95 99.9431 39.4547C94.0217 32.018 90.5166 23.4311 86.6476 16.2785C81.3842 6.58946 75.6537 0 65.7707 0C55.9281 0 50.1572 6.58946 44.916 16.2785C41.0289 23.4311 37.5015 31.9775 31.5215 39.491C25.5596 46.9904 17.9605 52.4332 11.8404 57.7893C3.48084 64.9764-1.65784 72.1658 0.504272 81.7699C2.70681 91.3781 10.3955 95.5143 21.0988 98.458C28.9322 100.61 38.0787 102.185 46.7599 106.379C55.2613 110.533 62.4701 116.752 69.0566 121.547C75.2517 126.001 81.0631 129.072 86.9775 129.072C89.6265 129.072 92.2756 128.464 94.9469 127.148ZM91.8303 120.695C85.2496 123.778 79.5601 119.995 73.481 115.777C66.4316 110.739 58.8185 104.16 49.9574 99.8853C40.876 95.5477 31.1453 93.6932 22.8713 91.4426C15.6484 89.3941 9.18261 87.259 7.59648 80.1691C5.99628 73.0289 10.8379 68.3215 16.4283 63.3334C22.876 57.7125 30.9561 51.7887 37.1746 44.0104C43.4195 36.2543 47.2439 27.1641 51.3373 19.6254C54.9414 13.0026 58.5273 7.23576 65.7707 7.23576C73.0545 7.23576 76.6 13.0026 80.1677 19.6254C84.2388 27.1641 88.1037 36.2139 94.3082 44.0285C100.549 51.8291 108.589 57.7125 115.054 63.3334C120.744 68.3215 125.545 73.0289 123.945 80.1691C122.359 87.259 115.875 89.3941 108.634 91.4426C100.643 93.6123 90.6291 95.5477 81.584 99.8853C72.6865 104.16 64.9299 110.82 58.0603 115.817C51.9631 119.995 46.2514 123.778 39.693 120.695C33.1932 117.513 32.4865 110.663 32.0928 103.192C31.6627 94.6652 32.1297 84.7406 29.9154 74.8652C27.6607 65.3233 23.0559 56.5383 19.6146 48.5068C16.8566 41.666 14.4355 35.3016 18.925 29.6807C23.4953 24.0012 30.1973 24.818 37.6058 26.0971C46.0111 27.6229 55.6973 30.2215 65.7707 30.2215C75.826 30.2215 85.5121 27.6229 93.9719 26.0971C101.308 24.7776 108.046 24.0012 112.558 29.6625C117.106 35.3016 114.685 41.7024 111.909 48.5068C108.467 56.5383 103.822 65.3233 101.666 74.9057C99.3754 84.7406 99.8424 94.6652 99.4486 103.192C99.0367 110.663 98.3705 117.513 91.8303 120.695Z" fill="#bf5af2"/>
 </g>
</svg>
