<?xml version="1.0" encoding="UTF-8"?>
<!--Generator: Apple Native CoreSVG 326-->
<!DOCTYPE svg
PUBLIC "-//W3C//DTD SVG 1.1//EN"
       "http://www.w3.org/Graphics/SVG/1.1/DTD/svg11.dtd">
<svg version="1.1" xmlns="http://www.w3.org/2000/svg" xmlns:xlink="http://www.w3.org/1999/xlink" viewBox="0 0 39.7461 51.001">
 <g>
  <rect height="51.001" opacity="0" width="39.7461" x="0" y="0"/>
  <path d="M28.9307 11.6699C25.293 11.6699 22.3145 13.8916 20.4102 13.8916C18.3838 13.8916 15.7471 11.6699 12.5732 11.6699C6.54297 11.6699 0.439453 16.7969 0.439453 26.1719C0.439453 32.0312 2.68555 38.208 5.49316 42.1875C7.88574 45.5566 9.98535 48.2666 13.0127 48.2666C15.9912 48.2666 17.3096 46.3379 21.0205 46.3379C24.7803 46.3379 25.6348 48.2666 28.9307 48.2666C32.2021 48.2666 34.375 45.2637 36.4502 42.3096C38.7451 38.916 39.7217 35.6201 39.7461 35.4492C39.5508 35.4004 33.3008 32.8369 33.3008 25.6836C33.3008 19.4824 38.208 16.6992 38.501 16.4795C35.2539 11.8164 30.2979 11.6699 28.9307 11.6699ZM27.2217 7.71484C28.7109 5.9082 29.7607 3.44238 29.7607 0.952148C29.7607 0.610352 29.7363 0.268555 29.6875 0C27.2461 0.0976562 24.3164 1.61133 22.583 3.66211C21.1914 5.22461 19.9219 7.71484 19.9219 10.2051C19.9219 10.5957 19.9951 10.9619 20.0195 11.084C20.166 11.1084 20.4102 11.1572 20.6787 11.1572C22.8516 11.1572 25.5859 9.69238 27.2217 7.71484Z" fill="white" fill-opacity="0.85"/>
 </g>
</svg>
