<?xml version="1.0" encoding="UTF-8"?>
<!--Generator: Apple Native CoreSVG 326-->
<!DOCTYPE svg
PUBLIC "-//W3C//DTD SVG 1.1//EN"
       "http://www.w3.org/Graphics/SVG/1.1/DTD/svg11.dtd">
<svg version="1.1" xmlns="http://www.w3.org/2000/svg" xmlns:xlink="http://www.w3.org/1999/xlink" viewBox="0 0 49.3215 48.9966">
 <g>
  <rect height="48.9966" opacity="0" width="49.3215" x="0" y="0"/>
  <path d="M24.4861 48.9722C38.0117 48.9722 48.9797 38.0042 48.9797 24.4861C48.9797 10.9605 38.0117 0 24.4861 0C10.968 0 0 10.9605 0 24.4861C0 38.0042 10.968 48.9722 24.4861 48.9722ZM24.4861 45.8057C12.7012 45.8057 3.16651 36.271 3.16651 24.4861C3.16651 12.6936 12.7012 3.15894 24.4861 3.15894C36.2786 3.15894 45.8132 12.6936 45.8132 24.4861C45.8132 36.271 36.2786 45.8057 24.4861 45.8057Z" fill="white" fill-opacity="0.55"/>
  <path d="M24.4861 36.6394C24.8608 36.6394 25.2095 36.5232 25.5691 36.1636L33.6921 28.2107C33.9919 27.9202 34.1419 27.6204 34.1419 27.2119C34.1419 26.4456 33.544 25.8889 32.7759 25.8889C32.418 25.8889 32.0112 26.0464 31.7451 26.3462L27.5574 30.7024L25.8672 32.4431L25.9927 28.8945L25.9927 13.7813C25.9927 12.9829 25.3013 12.3252 24.4861 12.3252C23.6785 12.3252 23.0039 12.9829 23.0039 13.7813L23.0039 28.8945L23.1125 32.4582L21.4072 30.7024L17.2195 26.3462C16.9534 26.0464 16.5374 25.8889 16.1794 25.8889C15.3962 25.8889 14.8228 26.4456 14.8228 27.2119C14.8228 27.6204 14.9727 27.9202 15.2556 28.2107L23.4031 36.1636C23.7703 36.5232 24.1113 36.6394 24.4861 36.6394Z" fill="white" fill-opacity="0.55"/>
 </g>
</svg>
