<?xml version="1.0" encoding="UTF-8"?>
<!--Generator: Apple Native CoreSVG 326-->
<!DOCTYPE svg
PUBLIC "-//W3C//DTD SVG 1.1//EN"
       "http://www.w3.org/Graphics/SVG/1.1/DTD/svg11.dtd">
<svg version="1.1" xmlns="http://www.w3.org/2000/svg" xmlns:xlink="http://www.w3.org/1999/xlink" viewBox="0 0 99.6094 99.6582">
 <g>
  <rect height="99.6582" opacity="0" width="99.6094" x="0" y="0"/>
  <path d="M49.8047 99.6094C77.2949 99.6094 99.6094 77.2949 99.6094 49.8047C99.6094 22.3145 77.2949 0 49.8047 0C22.3145 0 0 22.3145 0 49.8047C0 77.2949 22.3145 99.6094 49.8047 99.6094ZM49.8047 91.3086C26.8555 91.3086 8.30078 72.7539 8.30078 49.8047C8.30078 26.8555 26.8555 8.30078 49.8047 8.30078C72.7539 8.30078 91.3086 26.8555 91.3086 49.8047C91.3086 72.7539 72.7539 91.3086 49.8047 91.3086Z" fill="#0a84ff"/>
  <path d="M49.8047 25.1953C48.8281 25.1953 47.9492 25.4883 46.9727 26.4648L30.8594 41.9922C30.127 42.7246 29.7363 43.5059 29.7363 44.5801C29.7363 46.5332 31.2012 47.998 33.252 47.998C34.1797 47.998 35.2539 47.6074 35.9375 46.8262L43.3594 38.8672L46.2402 35.8887L45.9473 43.1641L45.9473 70.6543C45.9473 72.7051 47.7051 74.4141 49.8047 74.4141C51.9043 74.4141 53.7109 72.7051 53.7109 70.6543L53.7109 43.1641L53.3691 35.8887L56.25 38.8672L63.6719 46.8262C64.3555 47.6074 65.3809 47.998 66.3086 47.998C68.3594 47.998 69.873 46.5332 69.873 44.5801C69.873 43.5059 69.4824 42.7246 68.7012 41.9922L52.6367 26.4648C51.6602 25.4883 50.7812 25.1953 49.8047 25.1953Z" fill="#0a84ff"/>
 </g>
</svg>
