<?xml version="1.0" encoding="UTF-8"?>
<!--Generator: Apple Native CoreSVG 326-->
<!DOCTYPE svg
PUBLIC "-//W3C//DTD SVG 1.1//EN"
       "http://www.w3.org/Graphics/SVG/1.1/DTD/svg11.dtd">
<svg version="1.1" xmlns="http://www.w3.org/2000/svg" xmlns:xlink="http://www.w3.org/1999/xlink" viewBox="0 0 44.5464 44.2197">
 <g>
  <rect height="44.2197" opacity="0" width="44.5464" x="0" y="0"/>
  <path d="M7.19678 44.2046L37.0002 44.2046C41.7866 44.2046 44.2046 41.7808 44.2046 37.0845L44.2046 7.13697C44.2046 2.44067 41.7866 0 37.0002 0L7.19678 0C2.43482 0 0 2.41797 0 7.13697L0 37.0845C0 41.8035 2.43482 44.2046 7.19678 44.2046ZM7.25318 41.1897C4.50147 41.1897 3.02247 39.7368 3.02247 36.9177L3.02247 7.30371C3.02247 4.48463 4.50147 3.02247 7.25318 3.02247L36.9514 3.02247C39.6484 3.02247 41.1821 4.48463 41.1821 7.30371L41.1821 36.9177C41.1821 39.7368 39.6484 41.1897 36.9514 41.1897Z" fill="#007aff"/>
  <path d="M30.0361 28.001C30.8682 28.001 31.4341 27.3677 31.4341 26.4868L31.4341 14.3049C31.4341 13.2278 30.8176 12.7722 29.8752 12.7722L17.6521 12.7722C16.7544 12.7722 16.1885 13.3137 16.1885 14.1382C16.1885 14.9778 16.7712 15.5269 17.6858 15.5269L23.5747 15.5269L27.1047 15.2725L23.7956 18.3811L13.2278 28.9414C12.9617 29.2151 12.7874 29.5898 12.7874 29.9873C12.7874 30.8362 13.3364 31.3853 14.176 31.3853C14.6484 31.3853 15.0064 31.2109 15.2725 30.9448L25.8083 20.409L28.8926 17.1336L28.6475 21.1616L28.6475 26.5205C28.6475 27.4182 29.2041 28.001 30.0361 28.001Z" fill="#007aff"/>
 </g>
</svg>
