<?xml version="1.0" encoding="UTF-8"?>
<!--Generator: Apple Native CoreSVG 326-->
<!DOCTYPE svg
PUBLIC "-//W3C//DTD SVG 1.1//EN"
       "http://www.w3.org/Graphics/SVG/1.1/DTD/svg11.dtd">
<svg version="1.1" xmlns="http://www.w3.org/2000/svg" xmlns:xlink="http://www.w3.org/1999/xlink" viewBox="0 0 47.0215 46.7041">
 <g>
  <rect height="46.7041" opacity="0" width="47.0215" x="0" y="0"/>
  <path d="M8.61816 46.6797L38.0615 46.6797C43.6401 46.6797 46.6797 43.6646 46.6797 38.1226L46.6797 8.56934C46.6797 3.03955 43.6401 0 38.0615 0L8.61816 0C3.05176 0 0 3.03955 0 8.56934L0 38.1226C0 43.6646 3.05176 46.6797 8.61816 46.6797Z" fill="#ff453a"/>
  <path d="M16.5405 36.7798C15.3564 36.7798 14.5508 35.9131 14.5508 34.5825L14.5508 13.9771C14.5508 11.4258 15.979 9.97314 18.5303 9.97314L28.4546 9.97314C31.0303 9.97314 32.4585 11.4258 32.4585 13.9771L32.4585 34.5825C32.4585 35.9131 31.6528 36.7798 30.4565 36.7798C29.6997 36.7798 29.2114 36.4014 28.2471 35.4614L23.5962 30.8594C23.5352 30.7861 23.4497 30.7861 23.4009 30.8594L18.7744 35.4614C17.7979 36.4014 17.2974 36.7798 16.5405 36.7798Z" fill="white"/>
 </g>
</svg>
