<?xml version="1.0" encoding="UTF-8"?>
<!--Generator: Apple Native CoreSVG 326-->
<!DOCTYPE svg
PUBLIC "-//W3C//DTD SVG 1.1//EN"
       "http://www.w3.org/Graphics/SVG/1.1/DTD/svg11.dtd">
<svg version="1.1" xmlns="http://www.w3.org/2000/svg" xmlns:xlink="http://www.w3.org/1999/xlink" viewBox="0 0 47.8516 57.1533">
 <g>
  <rect height="57.1533" opacity="0" width="47.8516" x="0" y="0"/>
  <path d="M47.5098 15.9424L47.5098 52.9297C47.5098 55.4688 46.0449 57.1289 43.6768 57.1289L31.2988 57.1289C33.5195 57.1289 34.9459 55.6691 35.1149 53.3936L42.4561 53.3936C43.3594 53.3936 43.7988 52.9785 43.7988 52.0752L43.7988 16.7725C43.7988 15.8691 43.3594 15.4297 42.4561 15.4297L35.1318 15.4297L35.1318 11.7188L43.6768 11.7188C46.0449 11.7188 47.5098 13.3545 47.5098 15.9424ZM39.502 40.4541L39.502 44.0918C39.502 44.5557 39.1846 44.8486 38.6963 44.8486L35.1318 44.8486L35.1318 39.6729L38.6963 39.6729C39.1846 39.6729 39.502 39.9658 39.502 40.4541ZM39.502 31.5918L39.502 35.2295C39.502 35.6934 39.1846 36.0107 38.6963 36.0107L35.1318 36.0107L35.1318 30.8105L38.6963 30.8105C39.1846 30.8105 39.502 31.1279 39.502 31.5918ZM39.502 22.7295L39.502 26.3672C39.502 26.8311 39.1846 27.1484 38.6963 27.1484L35.1318 27.1484L35.1318 21.9482L38.6963 21.9482C39.1846 21.9482 39.502 22.2656 39.502 22.7295Z" fill="#5ac8f5"/>
  <path d="M3.83301 57.1289L31.2988 57.1289C33.667 57.1289 35.1318 55.4688 35.1318 52.9297L35.1318 4.19922C35.1318 1.63574 33.667 0 31.2988 0L3.83301 0C1.46484 0 0 1.63574 0 4.19922L0 52.9297C0 55.4688 1.46484 57.1289 3.83301 57.1289ZM5.05371 53.3936C4.1748 53.3936 3.71094 52.9785 3.71094 52.0752L3.71094 5.05371C3.71094 4.15039 4.1748 3.71094 5.05371 3.71094L30.0781 3.71094C30.9814 3.71094 31.4209 4.15039 31.4209 5.05371L31.4209 52.0752C31.4209 52.9785 30.9814 53.3936 30.0781 53.3936ZM9.96094 17.1631L14.6973 17.1631C15.3076 17.1631 15.6982 16.7725 15.6982 16.1621L15.6982 11.5479C15.6982 10.9619 15.3076 10.5469 14.6973 10.5469L9.96094 10.5469C9.35059 10.5469 8.98438 10.9619 8.98438 11.5479L8.98438 16.1621C8.98438 16.7725 9.35059 17.1631 9.96094 17.1631ZM20.4102 17.1631L25.1465 17.1631C25.7568 17.1631 26.1475 16.7725 26.1475 16.1621L26.1475 11.5479C26.1475 10.9619 25.7568 10.5469 25.1465 10.5469L20.4102 10.5469C19.8242 10.5469 19.4336 10.9619 19.4336 11.5479L19.4336 16.1621C19.4336 16.7725 19.8242 17.1631 20.4102 17.1631ZM9.96094 26.8311L14.6973 26.8311C15.3076 26.8311 15.6982 26.4404 15.6982 25.8301L15.6982 21.2158C15.6982 20.6299 15.3076 20.2148 14.6973 20.2148L9.96094 20.2148C9.35059 20.2148 8.98438 20.6299 8.98438 21.2158L8.98438 25.8301C8.98438 26.4404 9.35059 26.8311 9.96094 26.8311ZM20.4102 26.8311L25.1465 26.8311C25.7568 26.8311 26.1475 26.4404 26.1475 25.8301L26.1475 21.2158C26.1475 20.6299 25.7568 20.2148 25.1465 20.2148L20.4102 20.2148C19.8242 20.2148 19.4336 20.6299 19.4336 21.2158L19.4336 25.8301C19.4336 26.4404 19.8242 26.8311 20.4102 26.8311ZM9.96094 36.499L14.6973 36.499C15.3076 36.499 15.6982 36.084 15.6982 35.498L15.6982 30.8838C15.6982 30.2734 15.3076 29.8828 14.6973 29.8828L9.96094 29.8828C9.35059 29.8828 8.98438 30.2734 8.98438 30.8838L8.98438 35.498C8.98438 36.084 9.35059 36.499 9.96094 36.499ZM20.4102 36.499L25.1465 36.499C25.7568 36.499 26.1475 36.084 26.1475 35.498L26.1475 30.8838C26.1475 30.2734 25.7568 29.8828 25.1465 29.8828L20.4102 29.8828C19.8242 29.8828 19.4336 30.2734 19.4336 30.8838L19.4336 35.498C19.4336 36.084 19.8242 36.499 20.4102 36.499ZM10.4004 55.1758L13.4277 55.1758L13.4277 47.3877C13.4277 46.8994 13.6475 46.6553 14.1846 46.6553L20.9717 46.6553C21.4844 46.6553 21.7285 46.8994 21.7285 47.3877L21.7285 55.1758L24.7559 55.1758L24.7559 46.5332C24.7559 44.5557 23.9014 43.6035 21.9727 43.6035L13.1836 43.6035C11.2549 43.6035 10.4004 44.5557 10.4004 46.5332Z" fill="#5ac8f5"/>
 </g>
</svg>
