<?xml version="1.0" encoding="UTF-8"?>
<!--Generator: Apple Native CoreSVG 326-->
<!DOCTYPE svg
PUBLIC "-//W3C//DTD SVG 1.1//EN"
       "http://www.w3.org/Graphics/SVG/1.1/DTD/svg11.dtd">
<svg version="1.1" xmlns="http://www.w3.org/2000/svg" xmlns:xlink="http://www.w3.org/1999/xlink" viewBox="0 0 62.3779 46.0205">
 <g>
  <rect height="46.0205" opacity="0" width="62.3779" x="0" y="0"/>
  <path d="M49.6582 45.9717L56.25 45.9717C60.0586 45.9717 62.0361 44.1406 62.0361 40.5273L62.0361 5.46875C62.0361 1.85547 60.0586 0 56.25 0L49.6582 0C45.874 0 43.9209 1.85547 43.9209 5.46875L43.9209 40.5273C43.9209 44.1406 45.874 45.9717 49.6582 45.9717ZM50.3174 42.2852C48.4619 42.2852 47.8027 41.6504 47.8027 39.8193L47.8027 6.17676C47.8027 4.3457 48.4619 3.68652 50.3174 3.68652L55.6152 3.68652C57.4951 3.68652 58.1543 4.3457 58.1543 6.17676L58.1543 39.8193C58.1543 41.6504 57.4951 42.2852 55.6152 42.2852Z" fill="#32d74b"/>
  <path d="M27.71 45.9717L34.3018 45.9717C38.1104 45.9717 40.0635 44.1406 40.0635 40.5273L40.0635 12.5977C40.0635 8.98438 38.1104 7.12891 34.3018 7.12891L27.71 7.12891C23.9014 7.12891 21.9482 8.98438 21.9482 12.5977L21.9482 40.5273C21.9482 44.1406 23.9014 45.9717 27.71 45.9717ZM28.3691 42.2852C26.4893 42.2852 25.8301 41.6504 25.8301 39.8193L25.8301 13.3057C25.8301 11.4746 26.4893 10.8154 28.3691 10.8154L33.667 10.8154C35.5469 10.8154 36.1816 11.4746 36.1816 13.3057L36.1816 39.8193C36.1816 41.6504 35.5469 42.2852 33.667 42.2852Z" fill="#32d74b"/>
  <path d="M5.76172 45.9717L12.3291 45.9717C16.1377 45.9717 18.1152 44.1406 18.1152 40.5273L18.1152 19.7021C18.1152 16.0889 16.1377 14.2334 12.3291 14.2334L5.76172 14.2334C1.95312 14.2334 0 16.0889 0 19.7021L0 40.5273C0 44.1406 1.95312 45.9717 5.76172 45.9717ZM6.39648 42.2852C4.54102 42.2852 3.88184 41.6504 3.88184 39.8193L3.88184 20.4102C3.88184 18.5547 4.54102 17.9199 6.39648 17.9199L11.6943 17.9199C13.5742 17.9199 14.2334 18.5547 14.2334 20.4102L14.2334 39.8193C14.2334 41.6504 13.5742 42.2852 11.6943 42.2852Z" fill="#32d74b"/>
 </g>
</svg>
