<?xml version="1.0" encoding="UTF-8"?>
<!--Generator: Apple Native CoreSVG 326-->
<!DOCTYPE svg
PUBLIC "-//W3C//DTD SVG 1.1//EN"
       "http://www.w3.org/Graphics/SVG/1.1/DTD/svg11.dtd">
<svg version="1.1" xmlns="http://www.w3.org/2000/svg" xmlns:xlink="http://www.w3.org/1999/xlink" viewBox="0 0 41.0386 24.4014">
 <g>
  <rect height="24.4014" opacity="0" width="41.0386" x="0" y="0"/>
  <path d="M0.52295 20.0835C0.206299 20.3984 0 20.8086 0 21.292C0 22.2512 0.725099 22.9688 1.67676 22.9688C2.15259 22.9688 2.6023 22.8171 2.87769 22.5005L21.4275 3.02271L19.2769 3.02271L37.8115 22.5005C38.1113 22.8171 38.561 22.9688 39.0125 22.9688C39.9717 22.9688 40.6968 22.2512 40.6968 21.292C40.6968 20.8086 40.4981 20.406 40.1814 20.0986L21.6709 0.618897C21.324 0.238281 20.8499 0 20.353 0C19.8318 0 19.3821 0.230713 19.0183 0.611329Z" fill="black"/>
 </g>
</svg>
