<?xml version="1.0" encoding="UTF-8"?>
<!--Generator: Apple Native CoreSVG 326-->
<!DOCTYPE svg
PUBLIC "-//W3C//DTD SVG 1.1//EN"
       "http://www.w3.org/Graphics/SVG/1.1/DTD/svg11.dtd">
<svg version="1.1" xmlns="http://www.w3.org/2000/svg" xmlns:xlink="http://www.w3.org/1999/xlink" viewBox="0 0 28.8618 40.6665">
 <g>
  <rect height="40.6665" opacity="0" width="28.8618" x="0" y="0"/>
  <path d="M28.8618 20.3211C28.8618 19.8318 28.6707 19.4065 28.3052 19.0654L8.80274 0.475831C8.46924 0.15918 8.0608 0 7.5774 0C6.65015 0 5.90063 0.709963 5.90063 1.67676C5.90063 2.14332 6.08423 2.55347 6.3689 2.86256L24.7251 20.3211L6.3689 37.7795C6.08423 38.0811 5.90063 38.4819 5.90063 38.9653C5.90063 39.9321 6.65015 40.6421 7.5774 40.6421C8.0608 40.6421 8.46924 40.4754 8.80274 40.1419L28.3052 21.5767C28.6707 21.2112 28.8618 20.8103 28.8618 20.3211Z" fill="#4a4a4a"/>
 </g>
</svg>
