<?xml version="1.0" encoding="UTF-8"?>
<!--Generator: Apple Native CoreSVG 326-->
<!DOCTYPE svg
PUBLIC "-//W3C//DTD SVG 1.1//EN"
       "http://www.w3.org/Graphics/SVG/1.1/DTD/svg11.dtd">
<svg version="1.1" xmlns="http://www.w3.org/2000/svg" xmlns:xlink="http://www.w3.org/1999/xlink" viewBox="0 0 28.3106 38.3644">
 <g>
  <rect height="38.3644" opacity="0" width="28.3106" x="0" y="0"/>
  <path d="M0 19.17C0 19.4991 0.114262 19.7198 0.3672 19.9552L20.0791 38.05C20.2656 38.2433 20.5039 38.34 20.7871 38.34C21.3008 38.34 21.7501 37.9503 21.7501 37.3839C21.7501 37.1007 21.6397 36.88 21.4952 36.7286L2.36829 19.17L21.4952 1.61142C21.6397 1.44246 21.7501 1.23249 21.7501 0.956106C21.7501 0.389671 21.3008 0 20.7871 0C20.5039 0 20.2656 0.0791073 20.0791 0.26564L0.3672 18.3848C0.114262 18.5958 0 18.8409 0 19.17Z" fill="white" fill-opacity="0.85"/>
 </g>
</svg>
