<?xml version="1.0" encoding="UTF-8"?>
<!--Generator: Apple Native CoreSVG 326-->
<!DOCTYPE svg
PUBLIC "-//W3C//DTD SVG 1.1//EN"
       "http://www.w3.org/Graphics/SVG/1.1/DTD/svg11.dtd">
<svg version="1.1" xmlns="http://www.w3.org/2000/svg" xmlns:xlink="http://www.w3.org/1999/xlink" viewBox="0 0 27.6407 38.3644">
 <g>
  <rect height="38.3644" opacity="0" width="27.6407" x="0" y="0"/>
  <path d="M27.6407 19.17C27.6407 18.8409 27.5196 18.5958 27.2843 18.3848L7.56161 0.26564C7.36824 0.0791073 7.12995 0 6.84673 0C6.33987 0 5.89063 0.389671 5.89063 0.956106C5.89063 1.23249 5.99415 1.44246 6.13869 1.61142L25.2656 19.17L6.13869 36.7286C5.99415 36.88 5.89063 37.1007 5.89063 37.3839C5.89063 37.9503 6.33987 38.34 6.84673 38.34C7.12995 38.34 7.36824 38.2433 7.56161 38.05L27.2843 19.9552C27.5196 19.7198 27.6407 19.4991 27.6407 19.17Z" fill="white" fill-opacity="0.85"/>
 </g>
</svg>
