<?xml version="1.0" encoding="UTF-8"?>
<!--Generator: Apple Native CoreSVG 326-->
<!DOCTYPE svg
PUBLIC "-//W3C//DTD SVG 1.1//EN"
       "http://www.w3.org/Graphics/SVG/1.1/DTD/svg11.dtd">
<svg version="1.1" xmlns="http://www.w3.org/2000/svg" xmlns:xlink="http://www.w3.org/1999/xlink" viewBox="0 0 47.0215 46.7041">
 <g>
  <rect height="46.7041" opacity="0" width="47.0215" x="0" y="0"/>
  <path d="M8.61816 46.6797L38.0615 46.6797C43.6401 46.6797 46.6797 43.6646 46.6797 38.1226L46.6797 8.56934C46.6797 3.03955 43.6401 0 38.0615 0L8.61816 0C3.05176 0 0 3.03955 0 8.56934L0 38.1226C0 43.6646 3.05176 46.6797 8.61816 46.6797Z" fill="#0a84ff"/>
  <path d="M11.0718 25.3418C8.65479 25.3418 7.88574 22.4609 10.3394 21.3501L31.8848 11.3281C34.2163 10.2661 36.3403 12.3901 35.2783 14.7095L25.3174 36.2793C24.2188 38.7329 21.3257 37.9761 21.3257 35.5103L21.3135 26.2451C21.3135 25.7202 20.9473 25.3418 20.4346 25.3418Z" fill="white"/>
 </g>
</svg>
