<?xml version="1.0" encoding="UTF-8"?>
<!--Generator: Apple Native CoreSVG 326-->
<!DOCTYPE svg
PUBLIC "-//W3C//DTD SVG 1.1//EN"
       "http://www.w3.org/Graphics/SVG/1.1/DTD/svg11.dtd">
<svg version="1.1" xmlns="http://www.w3.org/2000/svg" xmlns:xlink="http://www.w3.org/1999/xlink" viewBox="0 0 164.171 92.434">
 <g>
  <rect height="92.434" opacity="0" width="164.171" x="0" y="0"/>
  <path d="M65.5981 7.38927L67.0811 7.38927C67.9055 7.38927 68.3379 7.78127 68.3379 8.66838L68.3379 9.27658C68.3379 11.4832 69.8151 12.9604 72.0217 12.9604L92.2846 12.9604C94.4508 12.9604 95.8471 11.4832 95.8471 9.27658L95.8471 8.66838C95.8471 7.78127 96.2795 7.38927 97.1666 7.38927L98.6315 7.38927L98.6315 3.65216L65.5981 3.65216ZM0 86.7533C0 89.918 2.47969 92.434 5.62208 92.434L158.549 92.434C161.691 92.434 164.171 89.918 164.171 86.7533C164.171 83.5705 161.691 81.0727 158.549 81.0727L145.735 81.0727L145.735 12.1031C145.735 4.19063 141.558 0.135351 133.705 0.135351L30.4664 0.135351C22.8774 0.135351 18.4359 4.19063 18.4359 12.1031L18.4359 81.0727L5.62208 81.0727C2.47969 81.0727 0 83.5705 0 86.7533ZM25.6899 81.0727L25.6899 13.8861C25.6899 9.53673 27.8555 7.38927 32.2049 7.38927L131.966 7.38927C136.315 7.38927 138.499 9.53673 138.499 13.8861L138.499 81.0727Z" fill="#FFFF"/>
 </g>
</svg>
