<?xml version="1.0" encoding="UTF-8"?>
<!--Generator: Apple Native CoreSVG 326-->
<!DOCTYPE svg
PUBLIC "-//W3C//DTD SVG 1.1//EN"
       "http://www.w3.org/Graphics/SVG/1.1/DTD/svg11.dtd">
<svg version="1.1" xmlns="http://www.w3.org/2000/svg" xmlns:xlink="http://www.w3.org/1999/xlink" viewBox="0 0 101.861 101.894">
 <g>
  <rect height="101.894" opacity="0" width="101.861" x="0" y="0"/>
  <path d="M9.02585 29.7692C20.8535 42.9992 37.9699 50.6695 56.0363 50.6362C70.5115 50.6029 84.3319 45.6181 95.4292 36.5075L92.0249 29.8121C82.0905 38.6143 69.4285 43.4215 56.0363 43.4548C38.8288 43.4881 22.8841 35.7356 12.3503 22.3482ZM3.63045 57.4172C29.1453 79.454 65.8305 83.5222 95.3293 67.8331L95.1051 59.653C66.716 76.7603 29.9353 72.6276 5.54557 49.4257ZM28.0821 91.0397L36.5706 92.915C32.911 84.5413 30.9513 75.5418 30.8514 66.3292C29.919 42.4964 40.4924 19.973 59.1292 5.20214L51.5594 2.15518C33.1002 18.2664 22.7864 41.7862 23.6855 66.3958C23.7521 74.7673 25.2458 83.0101 28.0821 91.0397ZM60.7412 95.9514L67.4233 92.9665C58.1216 80.1535 53.0635 64.8548 53.0635 48.9035C53.0635 33.8444 57.5046 19.4224 65.8497 7.22636L58.8614 4.77188C50.4031 17.8889 45.8666 33.1676 45.8666 48.9035C45.8666 65.9045 51.0534 82.1553 60.7412 95.9514ZM88.973 78.0047L93.8442 72.5498C77.3137 63.2968 67.0443 46.0915 66.8778 27.044C66.8112 20.2857 68.0474 13.5142 70.582 7.17099L63.6735 5.21807C60.9614 12.1627 59.6298 19.4979 59.6964 27.0773C59.8629 48.0933 70.9889 67.3491 88.973 78.0047ZM30.2126 50.0968C34.7667 50.0968 38.4952 46.335 38.4952 41.7476C38.4952 37.1758 34.7667 33.4317 30.2126 33.4317C25.6074 33.4317 21.8478 37.1758 21.8478 41.7476C21.8478 46.335 25.6074 50.0968 30.2126 50.0968ZM67.7857 54.1185C72.322 54.1185 76.0483 50.4078 76.0483 45.7738C76.0483 41.222 72.322 37.5112 67.7857 37.5112C63.1517 37.5112 59.441 41.222 59.441 45.7738C59.441 50.4078 63.1517 54.1185 67.7857 54.1185ZM53.1573 81.6114C57.7757 81.6114 61.4709 77.9007 61.4709 73.2489C61.4709 68.615 57.7447 64.8554 53.1573 64.8554C48.4745 64.8554 44.7149 68.615 44.7149 73.2489C44.7149 77.9007 48.4745 81.6114 53.1573 81.6114ZM50.9226 101.845C79.0495 101.845 101.861 79.0339 101.861 50.9226C101.861 22.8113 79.0495 0 50.9226 0C22.8113 0 0 22.8113 0 50.9226C0 79.0339 22.8113 101.845 50.9226 101.845ZM50.9226 93.124C27.638 93.124 8.73677 74.2073 8.73677 50.9226C8.73677 27.638 27.638 8.72124 50.9226 8.72124C74.2228 8.72124 93.124 27.638 93.124 50.9226C93.124 74.2073 74.2228 93.124 50.9226 93.124Z" fill="#0a84ff"/>
 </g>
</svg>
