<?xml version="1.0" encoding="UTF-8"?>
<!--Generator: Apple Native CoreSVG 326-->
<!DOCTYPE svg
PUBLIC "-//W3C//DTD SVG 1.1//EN"
       "http://www.w3.org/Graphics/SVG/1.1/DTD/svg11.dtd">
<svg version="1.1" xmlns="http://www.w3.org/2000/svg" xmlns:xlink="http://www.w3.org/1999/xlink" viewBox="0 0 212.721 106.643">
 <g>
  <rect height="106.643" opacity="0" width="212.721" x="0" y="0"/>
  <path d="M205.256 90.3735C205.256 96.3812 201.041 99.1797 192.408 99.1797L154.482 99.1797C156.18 96.6341 156.958 93.6017 156.958 90.3735C156.958 90.226 156.957 90.0783 156.927 89.9279L193.494 89.9279C194.546 89.9279 194.926 89.5706 194.926 88.7471C194.926 81.6376 183.067 68.3265 162.147 68.3265C157.238 68.3265 152.826 69.0574 148.971 70.2878C146.888 67.733 144.417 65.3228 141.567 63.161C147.484 60.6035 154.425 59.0592 162.147 59.0592C188.115 59.0592 205.256 76.5868 205.256 90.3735ZM183.707 30.2571C183.707 43.1653 174.079 53.6078 162.147 53.6078C150.2 53.6078 140.572 43.1986 140.572 30.3237C140.572 17.6885 150.311 7.3992 162.147 7.3992C174.05 7.3992 183.707 17.5552 183.707 30.2571ZM150.173 30.3082C150.173 38.3918 155.671 44.356 162.147 44.356C168.673 44.356 174.107 38.3252 174.107 30.2571C174.107 22.3954 168.677 16.651 162.147 16.651C155.651 16.651 150.173 22.4953 150.173 30.3082Z" fill="#0a84ff"/>
  <path d="M149.461 90.3735C149.461 96.3812 145.247 99.1797 136.613 99.1797L98.7278 99.1797C100.421 96.6341 101.195 93.6017 101.195 90.3735C101.195 90.226 101.193 90.0783 101.164 89.9279L137.699 89.9279C138.752 89.9279 139.131 89.5706 139.131 88.7471C139.131 81.6376 127.272 68.3265 106.353 68.3265C101.458 68.3265 97.0589 69.0531 93.2137 70.2777C91.1314 67.7224 88.6607 65.3117 85.8103 63.1499C91.719 60.5988 98.6468 59.0592 106.353 59.0592C132.321 59.0592 149.461 76.5868 149.461 90.3735ZM127.928 30.2571C127.928 43.1653 118.3 53.6078 106.353 53.6078C94.4391 53.6078 84.7779 43.1986 84.7779 30.3237C84.7779 17.6885 94.5168 7.3992 106.353 7.3992C118.256 7.3992 127.928 17.5552 127.928 30.2571ZM94.3938 30.3082C94.3938 38.3918 99.8917 44.356 106.353 44.356C112.912 44.356 118.312 38.3252 118.312 30.2571C118.312 22.3954 112.899 16.651 106.353 16.651C99.8717 16.651 94.3938 22.4953 94.3938 30.3082Z" fill="#0a84ff"/>
  <path d="M50.6384 53.6078C62.5523 53.6078 72.198 43.1653 72.198 30.2571C72.198 17.5552 62.5413 7.3992 50.6384 7.3992C38.7689 7.3992 29.0634 17.6885 29.0634 30.3237C29.0634 43.1986 38.6913 53.6078 50.6384 53.6078ZM50.6384 44.356C44.1617 44.356 38.6637 38.3918 38.6637 30.3082C38.6637 22.4953 44.1084 16.651 50.6384 16.651C57.1685 16.651 62.5977 22.3954 62.5977 30.2571C62.5977 38.3252 57.164 44.356 50.6384 44.356ZM20.3293 99.1797L80.8655 99.1797C89.5322 99.1797 93.7467 96.3812 93.7467 90.3735C93.7467 76.5868 76.6064 59.0592 50.6051 59.0592C24.6216 59.0592 7.48133 76.5868 7.48133 90.3735C7.48133 96.3812 11.6959 99.1797 20.3293 99.1797ZM19.2587 89.9279C18.191 89.9279 17.8115 89.5706 17.8115 88.7471C17.8115 81.6376 29.6859 68.3265 50.6051 68.3265C71.5577 68.3265 83.4166 81.6376 83.4166 88.7471C83.4166 89.5706 83.0037 89.9279 81.9516 89.9279Z" fill="#0a84ff"/>
 </g>
</svg>
