<?xml version="1.0" encoding="UTF-8"?>
<!--Generator: Apple Native CoreSVG 326-->
<!DOCTYPE svg
PUBLIC "-//W3C//DTD SVG 1.1//EN"
       "http://www.w3.org/Graphics/SVG/1.1/DTD/svg11.dtd">
<svg version="1.1" xmlns="http://www.w3.org/2000/svg" xmlns:xlink="http://www.w3.org/1999/xlink" viewBox="0 0 50.7837 50.4619">
 <g>
  <rect height="50.4619" opacity="0" width="50.7837" x="0" y="0"/>
  <path d="M25.2187 50.4375C39.144 50.4375 50.4419 39.1396 50.4419 25.2187C50.4419 11.2978 39.144 0 25.2187 0C11.2978 0 0 11.2978 0 25.2187C0 39.1396 11.2978 50.4375 25.2187 50.4375ZM25.2187 45.4697C14.021 45.4697 4.96774 36.4165 4.96774 25.2187C4.96774 14.021 14.021 4.96774 25.2187 4.96774C36.4165 4.96774 45.4741 14.021 45.4741 25.2187C45.4741 36.4165 36.4165 45.4697 25.2187 45.4697ZM41.4961 41.3296L41.4097 40.9248C39.875 37.3403 33.7417 33.6382 25.2187 33.6382C16.7202 33.6382 10.5825 37.3403 9.0322 40.9048L8.94577 41.3296C13.538 45.5566 20.5591 47.8848 25.2187 47.8848C29.9028 47.8848 36.8638 45.5767 41.4961 41.3296ZM25.2187 29.6152C29.957 29.6553 33.6279 25.625 33.6279 20.3891C33.6279 15.4619 29.9282 11.354 25.2187 11.354C20.5137 11.354 16.7895 15.4619 16.814 20.3891C16.834 25.625 20.5049 29.5752 25.2187 29.6152Z" fill="white" fill-opacity="0.85"/>
 </g>
</svg>
