<?xml version="1.0" encoding="UTF-8"?>
<!--Generator: Apple Native CoreSVG 326-->
<!DOCTYPE svg
PUBLIC "-//W3C//DTD SVG 1.1//EN"
       "http://www.w3.org/Graphics/SVG/1.1/DTD/svg11.dtd">
<svg version="1.1" xmlns="http://www.w3.org/2000/svg" xmlns:xlink="http://www.w3.org/1999/xlink" viewBox="0 0 65.1733 64.8193">
 <g>
  <rect height="64.8193" opacity="0" width="65.1733" x="0" y="0"/>
  <path d="M45.3125 11.0718L45.9602 14.7461L26.8555 14.7461C19.6411 14.7461 15.1001 19.2383 15.1001 26.4526L15.1001 51.0856C11.4882 50.9565 9.16529 48.7365 8.43506 44.6289L3.80859 18.3838C2.94189 13.4644 5.18799 10.2783 10.1318 9.39941L36.2915 4.79736C41.2598 3.94287 44.4336 6.15234 45.3125 11.0718Z" fill="#66d4cf"/>
  <path d="M26.8555 60.8521L53.418 60.8521C58.4473 60.8521 61.2061 58.1055 61.2061 53.1128L61.2061 26.4526C61.2061 21.46 58.4473 18.7134 53.418 18.7134L26.8555 18.7134C21.8262 18.7134 19.0552 21.4478 19.0552 26.4526L19.0552 53.1128C19.0552 58.1177 21.8262 60.8521 26.8555 60.8521ZM26.6968 55.1147C28.6133 50.6226 33.8867 47.3877 40.1367 47.3877C46.3867 47.3877 51.6479 50.6226 53.5767 55.1147ZM40.1245 43.9697C35.9375 43.9697 32.7271 40.4419 32.7271 35.8887C32.7271 31.5796 35.9863 27.9297 40.1245 27.9297C44.2871 27.9297 47.5464 31.5796 47.5464 35.8887C47.5464 40.4419 44.3359 43.9697 40.1245 43.9697Z" fill="#66d4cf"/>
 </g>
</svg>
