<?xml version="1.0" encoding="UTF-8"?>
<!--Generator: Apple Native CoreSVG 326-->
<!DOCTYPE svg
PUBLIC "-//W3C//DTD SVG 1.1//EN"
       "http://www.w3.org/Graphics/SVG/1.1/DTD/svg11.dtd">
<svg version="1.1" xmlns="http://www.w3.org/2000/svg" xmlns:xlink="http://www.w3.org/1999/xlink" viewBox="0 0 47.0215 46.7041">
 <g>
  <rect height="46.7041" opacity="0" width="47.0215" x="0" y="0"/>
  <path d="M8.61816 46.6797L38.0615 46.6797C43.6401 46.6797 46.6797 43.6646 46.6797 38.1226L46.6797 8.56934C46.6797 3.03955 43.6401 0 38.0615 0L8.61816 0C3.05176 0 0 3.03955 0 8.56934L0 38.1226C0 43.6646 3.05176 46.6797 8.61816 46.6797Z" fill="#32d74b"/>
  <path d="M11.5234 23.3521C11.5234 21.6797 12.7319 20.459 14.3677 20.459L20.6177 20.459L20.6177 14.209C20.6177 12.5732 21.8262 11.3525 23.4863 11.3525C25.1465 11.3525 26.3794 12.5732 26.3794 14.209L26.3794 20.459L32.6416 20.459C34.2651 20.459 35.4736 21.6797 35.4736 23.3521C35.4736 25.0122 34.2651 26.2085 32.6416 26.2085L26.3794 26.2085L26.3794 32.4707C26.3794 34.1064 25.1465 35.3027 23.4863 35.3027C21.8262 35.3027 20.6177 34.0942 20.6177 32.4707L20.6177 26.2085L14.3677 26.2085C12.7319 26.2085 11.5234 25.0122 11.5234 23.3521Z" fill="white"/>
 </g>
</svg>
