<?xml version="1.0" encoding="UTF-8"?>
<!--Generator: Apple Native CoreSVG 326-->
<!DOCTYPE svg
PUBLIC "-//W3C//DTD SVG 1.1//EN"
       "http://www.w3.org/Graphics/SVG/1.1/DTD/svg11.dtd">
<svg version="1.1" xmlns="http://www.w3.org/2000/svg" xmlns:xlink="http://www.w3.org/1999/xlink" viewBox="0 0 47.0215 46.7041">
 <g>
  <rect height="46.7041" opacity="0" width="47.0215" x="0" y="0"/>
  <path d="M46.6797 8.56934L46.6797 38.1226C46.6797 43.6646 43.6401 46.6797 38.0615 46.6797L8.61816 46.6797C3.05176 46.6797 0 43.6646 0 38.1226L0 8.56934C0 3.03955 3.05176 0 8.61816 0L38.0615 0C43.6401 0 46.6797 3.03955 46.6797 8.56934ZM25.9888 22.5464C25.9888 24.8413 27.4536 26.0986 29.6875 26.6479L31.7871 27.1484C32.7637 27.3804 33.4473 27.8198 33.4473 28.772C33.4473 29.834 32.605 30.4199 31.604 30.4199C30.3223 30.4199 29.5898 29.9805 28.833 28.894C28.3447 28.3081 27.7954 28.0518 27.2339 28.0518C26.416 28.0518 25.8057 28.6499 25.8057 29.4678C25.8057 29.6997 25.9033 30.0293 26.0376 30.3467C26.8188 32.2632 29.2969 33.0322 31.543 33.0322C34.5825 33.0322 37.1948 31.4453 37.1948 28.3691C37.1948 26.001 35.7056 25 33.3984 24.4629L31.2744 23.9624C30.3711 23.7427 29.6265 23.2422 29.6265 22.3511C29.6265 21.3501 30.3711 20.7031 31.4209 20.7031C32.5562 20.7031 33.3862 21.4355 33.8867 22.2656C34.2285 22.6807 34.7534 22.8638 35.1685 22.8638C36.1206 22.8638 36.5967 22.3755 36.5967 21.6064C36.5967 21.4233 36.5356 21.167 36.4746 20.9351C35.8521 19.043 33.6426 18.0908 31.4575 18.0908C28.2959 18.0908 25.9888 19.6777 25.9888 22.5464ZM13.7085 13.9526C12.4878 13.9526 11.7432 14.7095 11.7432 15.9546L11.7432 30.9692C11.7432 32.2388 12.4756 32.9956 13.7207 32.9956C14.9902 32.9956 15.6738 32.2388 15.6738 30.9692L15.6738 25.7446L17.7368 25.7446L20.0684 31.3599C20.5322 32.4585 21.1304 32.9956 22.0581 32.9956C23.1079 32.9956 23.9868 32.3242 23.9868 31.1401C23.9868 30.6274 23.7671 30.188 23.5352 29.6509L21.4478 25C23.3032 24.0601 24.1699 21.9238 24.1699 19.873C24.1699 16.2231 22.0093 13.9526 17.9077 13.9526ZM20.2148 19.9463C20.2148 21.6553 19.3604 22.9614 17.5537 22.9614L15.6738 22.9614L15.6738 16.9678L17.5537 16.9678C19.2749 16.9678 20.2148 18.1763 20.2148 19.9463Z" fill="#5e5ce6"/>
 </g>
</svg>
