<?xml version="1.0" encoding="UTF-8"?>
<!--Generator: Apple Native CoreSVG 326-->
<!DOCTYPE svg
PUBLIC "-//W3C//DTD SVG 1.1//EN"
       "http://www.w3.org/Graphics/SVG/1.1/DTD/svg11.dtd">
<svg version="1.1" xmlns="http://www.w3.org/2000/svg" xmlns:xlink="http://www.w3.org/1999/xlink" viewBox="0 0 100.106 108.014">
 <g>
  <rect height="108.014" opacity="0" width="100.106" x="0" y="0"/>
  <path d="M7.162 85.4609L45.9934 106.912C48.6191 108.381 51.471 108.381 54.1455 106.912L92.9281 85.4609C97.7929 82.7821 100.106 79.8992 100.106 73.072L100.106 33.0027C100.106 27.6917 98.1259 24.3005 93.5896 21.7859L59.4385 2.82467C53.2974-0.591049 46.8082-0.591049 40.6671 2.82467L6.5493 21.7859C1.97968 24.3005 0 27.6917 0 33.0027L0 73.072C0 79.8992 2.346 82.7821 7.162 85.4609ZM13.1248 77.1523C10.5722 75.7451 9.65776 74.2247 9.65776 71.7565L9.65776 37.1116L45.0242 56.8993L45.0242 95.051ZM86.9986 77.1523L55.0659 95.051L55.0659 56.8993L90.4479 37.1116L90.4479 71.7565C90.4479 74.2247 89.5334 75.7451 86.9986 77.1523ZM50.0617 48.0448L15.1613 28.6323L27.6717 21.5735L62.6342 41.006ZM72.9178 35.3826L37.9329 15.9523L45.0255 11.9498C48.4126 10.0653 51.662 10.001 55.0979 11.9498L84.9777 28.6323Z" fill="#0a84ff"/>
 </g>
</svg>
