<?xml version="1.0" encoding="UTF-8"?>
<!--Generator: Apple Native CoreSVG 326-->
<!DOCTYPE svg
PUBLIC "-//W3C//DTD SVG 1.1//EN"
       "http://www.w3.org/Graphics/SVG/1.1/DTD/svg11.dtd">
<svg version="1.1" xmlns="http://www.w3.org/2000/svg" xmlns:xlink="http://www.w3.org/1999/xlink" viewBox="0 0 47.0215 46.7041">
 <g>
  <rect height="46.7041" opacity="0" width="47.0215" x="0" y="0"/>
  <path d="M8.61816 46.6797L38.0615 46.6797C43.6401 46.6797 46.6797 43.6646 46.6797 38.1226L46.6797 8.56934C46.6797 3.03955 43.6401 0 38.0615 0L8.61816 0C3.05176 0 0 3.03955 0 8.56934L0 38.1226C0 43.6646 3.05176 46.6797 8.61816 46.6797Z" fill="#ffd60a"/>
  <path d="M10.5957 29.7363C9.58252 29.7363 8.8501 28.9917 8.8501 28.0151C8.8501 27.063 9.58252 26.3306 10.5957 26.3306L34.1187 26.3306C35.083 26.3306 35.8154 27.063 35.8154 28.0151C35.8154 28.9917 35.083 29.7363 34.1187 29.7363ZM10.5957 38.147C9.58252 38.147 8.8501 37.4023 8.8501 36.4624C8.8501 35.498 9.58252 34.729 10.5957 34.729L28.3813 34.729C29.3701 34.729 30.0903 35.498 30.0903 36.4624C30.0903 37.4023 29.3701 38.147 28.3813 38.147ZM8.98438 10.3149C8.98438 8.5083 10.0098 7.4707 11.8164 7.4707L17.3096 7.4707C19.1162 7.4707 20.1538 8.5083 20.1538 10.3149L20.1538 15.8081C20.1538 17.6025 19.1162 18.6401 17.3096 18.6401L11.8164 18.6401C10.0098 18.6401 8.98438 17.6025 8.98438 15.8081Z" fill="white"/>
 </g>
</svg>
