<?xml version="1.0" encoding="UTF-8"?>
<!--Generator: Apple Native CoreSVG 326-->
<!DOCTYPE svg
PUBLIC "-//W3C//DTD SVG 1.1//EN"
       "http://www.w3.org/Graphics/SVG/1.1/DTD/svg11.dtd">
<svg version="1.1" xmlns="http://www.w3.org/2000/svg" xmlns:xlink="http://www.w3.org/1999/xlink" viewBox="0 0 100.018 113.956">
 <g>
  <rect height="113.956" opacity="0" width="100.018" x="0" y="0"/>
  <path d="M54.7919 1.53202L92.925 23.596C98.2645 26.7096 100.018 29.7457 100.018 35.9418L100.018 79.2795C100.018 88.8179 93.6444 91.9826 85.6106 87.3443L79.8522 84.0188L79.8522 71.7626L88.7178 76.93C89.1418 77.1741 89.4658 76.9811 89.4658 76.5238L89.4658 36.1105C89.4658 34.2904 89.0196 33.7155 87.6124 32.8964L52.5481 12.6387C52.1064 12.3768 51.7646 12.6209 51.7646 13.0781L51.7646 23.0542L41.2126 16.958L41.2126 9.10386C41.2126 0.431237 48.7313-1.93213 54.7919 1.53202Z" fill="#0a84ff"/>
  <path d="M34.6263 13.1529L72.7594 35.1836C78.1477 38.3304 79.8522 41.3666 79.8522 47.5293L79.8522 90.8848C79.8522 100.406 73.4943 103.555 65.445 98.9497L58.8052 95.1086L58.8052 82.8188L68.5678 88.5021C68.9762 88.7462 69.3157 88.5531 69.3157 88.1114L69.3157 47.6981C69.3157 45.878 68.854 45.3031 67.4468 44.484L32.398 24.2263C31.9741 23.9644 31.599 24.2418 31.599 24.6502L31.599 35.8638L21.0625 29.7674L21.0625 20.6914C21.0625 12.0521 28.5812 9.65546 34.6263 13.1529Z" fill="#0a84ff"/>
  <path d="M58.8052 59.814C58.8052 53.6512 57.0519 50.6151 51.7125 47.5015L13.5793 25.4376C7.51872 21.9579 0 24.3368 0 32.9606L0 77.5678C0 83.551 1.44258 86.4274 6.87987 89.5499L44.398 111.234C52.4318 115.873 58.8052 112.69 58.8052 103.169ZM46.3998 56.7532C47.807 57.5877 48.2532 58.1626 48.2532 59.9828L48.2532 100.396C48.2532 100.838 47.9292 101.064 47.5053 100.82L12.3566 80.3094C10.9293 79.4725 10.552 78.7534 10.552 77.0953L10.552 36.9349C10.552 36.5265 10.8938 36.2823 11.3355 36.4954Z" fill="#0a84ff"/>
 </g>
</svg>
