<?xml version="1.0" encoding="UTF-8"?>
<!--Generator: Apple Native CoreSVG 326-->
<!DOCTYPE svg
PUBLIC "-//W3C//DTD SVG 1.1//EN"
       "http://www.w3.org/Graphics/SVG/1.1/DTD/svg11.dtd">
<svg version="1.1" xmlns="http://www.w3.org/2000/svg" xmlns:xlink="http://www.w3.org/1999/xlink" viewBox="0 0 50.6831 43.0039">
 <g>
  <rect height="43.0039" opacity="0" width="50.6831" x="0" y="0"/>
  <path d="M24.5517 4.62937L48.0229 4.62937C49.3017 4.62937 50.3413 3.59471 50.3413 2.32469C50.3413 1.0371 49.3061 0 48.0229 0L24.5517 0C23.2485 0 22.249 1.05029 22.249 2.32469C22.249 3.58592 23.2529 4.62937 24.5517 4.62937ZM24.5517 17.4179L48.0229 17.4179C49.3017 17.4179 50.3413 16.3633 50.3413 15.0932C50.3413 13.8101 49.3061 12.7886 48.0229 12.7886L24.5517 12.7886C23.2485 12.7886 22.249 13.8188 22.249 15.0932C22.249 16.3545 23.2529 17.4179 24.5517 17.4179ZM24.5517 30.1909L48.0229 30.1909C49.3017 30.1909 50.3413 29.1562 50.3413 27.8862C50.3413 26.5786 49.3061 25.5615 48.0229 25.5615L24.5517 25.5615C23.2485 25.5615 22.249 26.5874 22.249 27.8862C22.249 29.143 23.2529 30.1909 24.5517 30.1909ZM24.5517 42.9594L48.0229 42.9594C49.3017 42.9594 50.3413 41.9248 50.3413 40.6548C50.3413 39.3672 49.3061 38.3301 48.0229 38.3301L24.5517 38.3301C23.2485 38.3301 22.249 39.3804 22.249 40.6548C22.249 41.916 23.2529 42.9594 24.5517 42.9594Z" fill="white" fill-opacity="0.55"/>
  <path d="M4.59081 17.0815L12.4907 17.0815C15.4179 17.0815 17.0815 15.438 17.0815 12.5996L17.0815 4.49315C17.0815 1.65478 15.4179 0 12.4907 0L4.59081 0C1.66357 0 0 1.65478 0 4.49315L0 12.5996C0 15.438 1.66357 17.0815 4.59081 17.0815ZM4.59081 42.9594L12.4907 42.9594C15.4179 42.9594 17.0815 41.3159 17.0815 38.4775L17.0815 30.3711C17.0815 27.5327 15.4179 25.8779 12.4907 25.8779L4.59081 25.8779C1.66357 25.8779 0 27.5327 0 30.3711L0 38.4775C0 41.3159 1.66357 42.9594 4.59081 42.9594Z" fill="white" fill-opacity="0.55"/>
 </g>
</svg>
