<?xml version="1.0" encoding="UTF-8"?>
<!--Generator: Apple Native CoreSVG 326-->
<!DOCTYPE svg
PUBLIC "-//W3C//DTD SVG 1.1//EN"
       "http://www.w3.org/Graphics/SVG/1.1/DTD/svg11.dtd">
<svg version="1.1" xmlns="http://www.w3.org/2000/svg" xmlns:xlink="http://www.w3.org/1999/xlink" viewBox="0 0 50.7837 50.4619">
 <g>
  <rect height="50.4619" opacity="0" width="50.7837" x="0" y="0"/>
  <path d="M25.2187 50.4375C39.0879 50.4375 50.4419 39.0591 50.4419 25.2187C50.4419 11.3584 39.1079 0 25.2388 0C23.7471 0 22.9146 0.886714 22.9146 2.34081L22.9146 11.354C22.9146 12.5996 23.7788 13.5483 24.9956 13.5483C26.2368 13.5483 27.0967 12.5996 27.0967 11.354L27.0967 2.23046L24.979 4.91501C36.3711 4.80075 45.4497 13.893 45.4497 25.2187C45.4497 36.439 36.4741 45.4697 25.2187 45.4697C13.9677 45.4697 4.94772 36.439 4.96774 25.2187C4.98776 20.3574 6.69577 15.8877 9.55662 12.4262C10.4604 11.1753 10.5927 9.86522 9.56297 8.82616C8.55077 7.80029 6.88721 7.90869 5.79932 9.29051C2.21143 13.6318 0 19.2143 0 25.2187C0 39.0591 11.374 50.4375 25.2187 50.4375Z" fill="#a1a1a6"/>
  <path d="M25.2187 29.3252C27.5083 29.3252 29.3496 27.4883 29.3496 25.2187C29.3496 23.8232 28.6596 22.5879 27.5332 21.8159L15.8291 13.7051C14.4175 12.7451 13.0317 14.144 13.9629 15.5913L21.6269 27.2353C22.4346 28.5019 23.7256 29.3252 25.2187 29.3252Z" fill="#a1a1a6"/>
 </g>
</svg>
